# xmcd
#
# Track frame offsets: 
#        150
#        20540
#        38375
#        64027
#        81432
#        107360
#        125815
#        146742
#        159867
#        188662
#        208572
#        227945
#
# Disc length: 3403 seconds
#
# Revision: 0
# Processed by: cddbd v1.5.2PL0 Copyright (c) Steve Scherf et al.
# Submitted via: ExactAudioCopy v1.3
#
DISCID=9a0d490c
DTITLE=Bruce Katz Band - Mississippi Moan
DYEAR=1997
DGENRE=Blues
TTITLE0=Hep-ology
TTITLE1=Night Of Joy
TTITLE2=Hanging On The Cross
TTITLE3=Norton's Boogie
TTITLE4=Mississippi Moan
TTITLE5=In the Garden
TTITLE6=Elmore's Glue
TTITLE7=Jakalope Bar-B-Q
TTITLE8=The Prowler
TTITLE9=I'm Gonna Love You
TTITLE10=Compared To What
TTITLE11=Praise House
EXTD=
EXTT0=
EXTT1=
EXTT2=
EXTT3=
EXTT4=
EXTT5=
EXTT6=
EXTT7=
EXTT8=
EXTT9=
EXTT10=
EXTT11=
PLAYORDER=
